<svg xmlns="http://www.w3.org/2000/svg" viewBox="0 0 128 160" x="0px" y="0px"><title>self-care, comforting, heart, love, empathy, hands, giving</title><path d="M55.78,50.2a1.5,1.5,0,0,1-1.092-.471A3.914,3.914,0,0,0,50.53,49.3,1.5,1.5,0,0,1,48.7,46.917c1.743-1.339,5.939-1.615,8.169.749A1.5,1.5,0,0,1,55.78,50.2Z"/><path d="M72.113,50.2a1.5,1.5,0,0,1-1.091-2.529c2.229-2.363,6.427-2.088,8.169-.749A1.5,1.5,0,0,1,77.363,49.3a3.914,3.914,0,0,0-4.158.428A1.5,1.5,0,0,1,72.113,50.2Z"/><path d="M63.949,88.416a7.988,7.988,0,0,1-1.583-.158c-3.973-.8-14.552-3.9-26.966-15.506-8.765-8.193-13.494-21.975-13.494-30.783,0-15.115,9.946-26.513,23.136-26.513A24.166,24.166,0,0,1,63.537,24.3a.524.524,0,0,0,.409.208h0a.526.526,0,0,0,.41-.208,24.163,24.163,0,0,1,18.5-8.845c13.189,0,23.135,11.4,23.135,26.513,0,8.807-4.729,22.59-13.493,30.783C80.081,84.356,69.5,87.461,65.533,88.258A8.005,8.005,0,0,1,63.949,88.416ZM45.042,18.456c-11.668,0-20.136,9.889-20.136,23.513,0,8.177,4.4,20.976,12.543,28.592C49.3,81.64,59.234,84.571,62.955,85.317a5.058,5.058,0,0,0,1.988,0c3.72-.746,13.651-3.678,25.5-14.756,8.146-7.616,12.542-20.415,12.542-28.592,0-13.624-8.468-23.513-20.135-23.513a21.172,21.172,0,0,0-16.194,7.77,3.535,3.535,0,0,1-2.711,1.283h0a3.53,3.53,0,0,1-2.71-1.283A21.175,21.175,0,0,0,45.042,18.456Z"/><path d="M112.158,78.816a4.387,4.387,0,0,0-3.661-1.064c-3.374.56-5.726,4.217-7.8,7.508A4.644,4.644,0,0,0,95.655,83.7c-2.122.593-7.889,3.728-11.09,5.715a29.654,29.654,0,0,0-12.231,15.149c-1.246,3.188-3.751,14.061-2.894,18.6a3.667,3.667,0,0,0,1.267,2.224c1.218,1.035,4.574,1.451,7.658,1.451a17,17,0,0,0,5.625-.687,3.66,3.66,0,0,0,2.116-2.6c.11-.442.192-1.024.286-1.7a16.84,16.84,0,0,1,1.246-5.025c1.414-2.738,4.93-5.6,7.755-7.9,1.32-1.073,2.46-2,3.3-2.833,3.991-3.948,14.286-20.1,14.631-24.385A3.53,3.53,0,0,0,112.158,78.816Zm-2.041,3.563c-1.472,4.42-9.844,17.929-13.533,21.578-.738.73-1.877,1.658-3.084,2.64-3.042,2.474-6.826,5.553-8.527,8.847a19.111,19.111,0,0,0-1.552,5.985c-.079.568-.154,1.1-.227,1.395a.725.725,0,0,1-.489.612c-1.353.642-8.828.526-10.056-.339a.689.689,0,0,1-.261-.5c-.667-3.527,1.456-13.658,2.74-16.947A26.8,26.8,0,0,1,86.147,91.962a68.5,68.5,0,0,1,10.315-5.375,2.3,2.3,0,0,1,.618-.089,1.479,1.479,0,0,1,1.279.642,1.425,1.425,0,0,1-.1,1.713,16.192,16.192,0,0,1-3.34,2.776c-2.369,1.666-5.054,3.555-6.013,6.593a1.5,1.5,0,0,0,2.862.9c.653-2.071,2.8-3.582,4.877-5.042a26.693,26.693,0,0,0,6.484-7.044c1.573-2.723,3.754-5.977,5.86-6.327a1.4,1.4,0,0,1,1.139.312C110.354,81.232,110.373,81.745,110.117,82.379Z"/><path d="M43.351,89.413c-3.2-1.987-8.966-5.122-11.09-5.715a4.642,4.642,0,0,0-5.047,1.562c-2.068-3.291-4.42-6.948-7.794-7.508a4.376,4.376,0,0,0-3.661,1.063,3.535,3.535,0,0,0-1.168,2.89c.346,4.281,10.64,20.437,14.632,24.385.841.832,1.981,1.76,3.3,2.833,2.825,2.3,6.341,5.16,7.755,7.9a16.868,16.868,0,0,1,1.245,5.025c.095.675.177,1.257.286,1.7a3.663,3.663,0,0,0,2.116,2.6,17.006,17.006,0,0,0,5.625.686c3.084,0,6.44-.415,7.659-1.45a3.676,3.676,0,0,0,1.267-2.225c.857-4.535-1.649-15.408-2.895-18.6A29.644,29.644,0,0,0,43.351,89.413ZM55.529,122.6a.679.679,0,0,1-.248.486c-1.24.876-8.715.993-10.07.35a.728.728,0,0,1-.489-.612c-.072-.292-.147-.827-.227-1.395a19.1,19.1,0,0,0-1.551-5.984c-1.7-3.295-5.486-6.374-8.527-8.849-1.207-.981-2.347-1.909-3.085-2.639-3.708-3.668-12.15-17.3-13.555-21.649a1.688,1.688,0,0,1,.013-1.284,1.1,1.1,0,0,1,1.139-.312c2.1.4,4.187,3.663,5.86,6.327.853,1.358,3.867,5.555,6.483,7.044,2.207,1.255,4.225,2.971,4.878,5.042a1.5,1.5,0,0,0,2.861-.9C38.053,95.184,35.368,93.3,33,91.629a16.192,16.192,0,0,1-3.34-2.776,1.425,1.425,0,0,1-.1-1.713,1.634,1.634,0,0,1,1.9-.553,68.359,68.359,0,0,1,10.315,5.375,26.792,26.792,0,0,1,11.019,13.692C54.073,108.943,56.2,119.074,55.529,122.6Z"/><path d="M69.492,56.061a3.776,3.776,0,0,0-2.887-1.339H61.289a3.793,3.793,0,0,0-3.735,4.429,6.476,6.476,0,0,0,12.786,0A3.8,3.8,0,0,0,69.492,56.061ZM63.947,61.6a3.238,3.238,0,0,1-3.435-2.94.794.794,0,0,1,.777-.933h5.316a.794.794,0,0,1,.776.933A3.237,3.237,0,0,1,63.947,61.6Z"/><path d="M122.422,54.581l-2.367-1.3-1.294-2.366a3.58,3.58,0,0,0-6.282,0l-1.294,2.366-2.367,1.3a3.58,3.58,0,0,0,0,6.282l2.367,1.294,1.294,2.366a3.579,3.579,0,0,0,6.282,0l1.294-2.366,2.367-1.294a3.58,3.58,0,0,0,0-6.282Zm-1.44,3.65-2.988,1.634a.571.571,0,0,0-.231.231l-1.634,2.988a.58.58,0,0,1-1.018,0L113.477,60.1a.583.583,0,0,0-.231-.231l-2.988-1.634a.58.58,0,0,1,0-1.018l2.988-1.635a.587.587,0,0,0,.231-.23l1.634-2.989a.581.581,0,0,1,1.018,0l1.634,2.989a.575.575,0,0,0,.231.23l2.988,1.635A.58.58,0,0,1,120.982,58.231Z"/><path d="M34.655,5.1l-.92-.5-.5-.921a3.313,3.313,0,0,0-5.813,0l-.5.921L26,5.1a3.313,3.313,0,0,0,0,5.813l.921.5.5.92a3.313,3.313,0,0,0,5.813,0l.5-.92.92-.5a3.313,3.313,0,0,0,0-5.813ZM33.216,8.277l-1.611.881a.3.3,0,0,0-.125.124L30.6,10.893a.313.313,0,0,1-.548,0L29.17,9.282a.308.308,0,0,0-.124-.124l-1.611-.881a.313.313,0,0,1,0-.549l1.611-.881a.321.321,0,0,0,.124-.124l.881-1.611a.312.312,0,0,1,.548,0l.881,1.611a.317.317,0,0,0,.125.124l1.611.881A.314.314,0,0,1,33.216,8.277Z"/><path d="M19.969,18.951l-1.709-.936-.935-1.709a3.459,3.459,0,0,0-6.069,0l-.935,1.709-1.71.935a3.459,3.459,0,0,0,0,6.069l1.71.935.935,1.71a3.459,3.459,0,0,0,6.069,0l.935-1.71,1.709-.935a3.458,3.458,0,0,0,0-6.068ZM18.53,22.387l-2.363,1.292a.458.458,0,0,0-.182.183l-1.292,2.362a.458.458,0,0,1-.8,0L12.6,23.862a.458.458,0,0,0-.182-.183l-2.363-1.292a.458.458,0,0,1,0-.8l2.363-1.293a.455.455,0,0,0,.182-.182l1.292-2.363a.459.459,0,0,1,.8,0l1.292,2.363a.455.455,0,0,0,.182.182l2.363,1.293A.458.458,0,0,1,18.53,22.387Z"/></svg>