<svg xmlns="http://www.w3.org/2000/svg" viewBox="0 0 96 120" x="0px" y="0px"><title>health</title><g data-name="1"><path d="M86.92,47.62H80.7a23.9,23.9,0,0,0-.3-19.31c-2.89-6.64-8.11-11.34-14-12.58A20.07,20.07,0,0,0,48,21.44a20.07,20.07,0,0,0-18.42-5.71c-5.87,1.24-11.09,5.94-14,12.58-3.17,7.3-2.89,15.27.75,21.31l.07.11H9.08a2.5,2.5,0,1,0,0,5H20c9,11,25.56,24.74,26.37,25.41a2.5,2.5,0,0,0,3.18,0c.87-.72,19.65-16.27,28-27.52h9.31a2.5,2.5,0,0,0,0-5ZM20.63,47c-2.81-4.66-3-10.91-.44-16.74,2.24-5.15,6.13-8.77,10.42-9.67a14.68,14.68,0,0,1,3.07-.33c7.56,0,12.07,6.05,12.29,6.36a2.52,2.52,0,0,0,2,1,2.47,2.47,0,0,0,2-1.05c.06-.08,5.86-8,15.36-6,4.29.9,8.18,4.52,10.42,9.67,2.53,5.83,2.37,12.08-.44,16.74-.11.19-.24.38-.36.58H54.9a2.49,2.49,0,0,0-2.31,1.54l-2.76,6.65-7.51-19a2.5,2.5,0,0,0-4.7.12L33.31,49.73H22.46C21.76,48.79,21.14,47.89,20.63,47ZM48,74.94c-3.91-3.31-14.17-12.21-21.38-20.21H35.1A2.51,2.51,0,0,0,37.47,53l2.71-8,7.28,18.36A2.49,2.49,0,0,0,49.76,65h0a2.51,2.51,0,0,0,2.31-1.54l4.47-10.8H71.23C64.05,61.09,52.26,71.33,48,74.94Z"/></g><text x="0" y="111" fill="#000000" font-size="5px" font-weight="bold" font-family="'Helvetica Neue', Helvetica, Arial-Unicode, Arial, Sans-serif"></text><text x="0" y="116" fill="#000000" font-size="5px" font-weight="bold" font-family="'Helvetica Neue', Helvetica, Arial-Unicode, Arial, Sans-serif"></text></svg>