<svg xmlns="http://www.w3.org/2000/svg" xmlns:xlink="http://www.w3.org/1999/xlink" zoomAndPan="magnify" preserveAspectRatio="xMidYMid meet" version="1.0" viewBox="12.83 81.81 325.73 194.59"><defs><g/></defs><g fill="#000000" fill-opacity="1"><g transform="translate(72.560061, 235.383784)"><g><path d="M 224.65625 -37.984375 C 219.363281 -38.597656 214.03125 -38.90625 208.65625 -38.90625 C 206.300781 -38.988281 203.90625 -39.054688 201.46875 -39.109375 C 179.269531 -40.023438 157.019531 -40.257812 134.71875 -39.8125 C 133.601562 -39.8125 132.6875 -39.8125 131.96875 -39.8125 C 130.75 -39.894531 129.863281 -39.890625 129.3125 -39.796875 C 128.757812 -39.703125 128.316406 -39.394531 127.984375 -38.875 C 127.648438 -38.363281 127.257812 -37.53125 126.8125 -36.375 C 126.507812 -35.707031 126.148438 -34.875 125.734375 -33.875 C 122.023438 -25.78125 118.617188 -17.550781 115.515625 -9.1875 C 113.484375 -3.78125 111.914062 1.757812 110.8125 7.4375 C 110.394531 9.207031 110.25 10.929688 110.375 12.609375 C 110.5 14.285156 111.253906 15.789062 112.640625 17.125 C 112.835938 17.257812 112.90625 17.429688 112.84375 17.640625 C 112.789062 17.847656 112.664062 18.039062 112.46875 18.21875 C 112.28125 18.40625 112.070312 18.523438 111.84375 18.578125 C 108.550781 19.078125 106.570312 17.898438 105.90625 15.046875 C 105.519531 13.441406 105.453125 11.789062 105.703125 10.09375 C 105.703125 9.957031 105.703125 9.863281 105.703125 9.8125 C 105.953125 6.894531 106.46875 4.003906 107.25 1.140625 C 108.039062 -1.722656 108.921875 -4.597656 109.890625 -7.484375 C 113.023438 -16.128906 116.476562 -24.660156 120.25 -33.078125 C 120.4375 -33.441406 120.585938 -33.804688 120.703125 -34.171875 C 120.898438 -34.585938 121.109375 -35.015625 121.328125 -35.453125 C 121.628906 -36.066406 121.90625 -36.675781 122.15625 -37.28125 C 122.40625 -37.894531 122.503906 -38.535156 122.453125 -39.203125 C 122.148438 -39.441406 121.84375 -39.585938 121.53125 -39.640625 C 121.226562 -39.703125 120.925781 -39.707031 120.625 -39.65625 C 120.5625 -39.65625 120.488281 -39.65625 120.40625 -39.65625 C 117.800781 -39.65625 115.1875 -39.625 112.5625 -39.5625 C 111.84375 -39.5625 111.078125 -39.5625 110.265625 -39.5625 C 109.296875 -39.507812 108.476562 -39.207031 107.8125 -38.65625 C 107.15625 -38.101562 106.519531 -37.425781 105.90625 -36.625 C 105.101562 -35.59375 104.300781 -34.566406 103.5 -33.546875 C 100.09375 -29.191406 96.65625 -24.878906 93.1875 -20.609375 C 88.0625 -14.410156 82.707031 -8.425781 77.125 -2.65625 C 71.539062 3.101562 65.617188 8.503906 59.359375 13.546875 C 51.484375 20.035156 43.128906 25.742188 34.296875 30.671875 C 20.765625 37.929688 6.585938 41.367188 -8.234375 40.984375 C -22.191406 40.679688 -34.785156 36.910156 -46.015625 29.671875 C -49.171875 27.648438 -51.96875 25.210938 -54.40625 22.359375 C -56.039062 20.335938 -57.335938 18.15625 -58.296875 15.8125 C -59.253906 13.46875 -59.734375 10.925781 -59.734375 8.1875 C -59.585938 4.882812 -58.828125 1.828125 -57.453125 -0.984375 C -56.085938 -3.796875 -54.1875 -6.347656 -51.75 -8.640625 C -48.394531 -11.890625 -44.707031 -14.632812 -40.6875 -16.875 C -36.78125 -19.144531 -32.753906 -21.128906 -28.609375 -22.828125 C -24.472656 -24.535156 -20.296875 -26.054688 -16.078125 -27.390625 C -9.265625 -29.578125 -2.382812 -31.414062 4.5625 -32.90625 C 11.519531 -34.40625 18.503906 -35.6875 25.515625 -36.75 C 42.140625 -39.039062 58.8125 -40.5625 75.53125 -41.3125 C 84.0625 -41.84375 92.566406 -42.109375 101.046875 -42.109375 C 103.367188 -42.046875 105.171875 -43.03125 106.453125 -45.0625 C 108.691406 -48.21875 110.945312 -51.390625 113.21875 -54.578125 C 116.738281 -59.453125 120.203125 -64.410156 123.609375 -69.453125 C 139.460938 -93.117188 154.648438 -117.171875 169.171875 -141.609375 C 170.390625 -143.691406 171.582031 -145.796875 172.75 -147.921875 C 173.300781 -149.003906 173.878906 -150.101562 174.484375 -151.21875 C 175.210938 -152.625 176.363281 -153.410156 177.9375 -153.578125 C 178.800781 -153.578125 179.429688 -153.332031 179.828125 -152.84375 C 180.234375 -152.363281 180.28125 -151.722656 179.96875 -150.921875 C 179.664062 -150.253906 179.320312 -149.617188 178.9375 -149.015625 C 176.582031 -144.796875 174.488281 -140.523438 172.65625 -136.203125 C 171.96875 -134.679688 171.289062 -133.1875 170.625 -131.71875 C 164.21875 -117.832031 157.789062 -103.9375 151.34375 -90.03125 C 146.40625 -79.300781 141.429688 -68.550781 136.421875 -57.78125 C 134.972656 -54.59375 133.546875 -51.414062 132.140625 -48.25 C 131.828125 -47.59375 131.519531 -46.957031 131.21875 -46.34375 C 131.164062 -46.207031 131.109375 -46.054688 131.046875 -45.890625 C 130.859375 -45.441406 130.703125 -45.003906 130.578125 -44.578125 C 130.453125 -44.148438 130.488281 -43.726562 130.6875 -43.3125 C 131.09375 -43.007812 131.570312 -42.84375 132.125 -42.8125 C 132.6875 -42.78125 133.203125 -42.765625 133.671875 -42.765625 C 134.054688 -42.828125 134.40625 -42.859375 134.71875 -42.859375 C 137.007812 -42.796875 139.320312 -42.796875 141.65625 -42.859375 C 144.8125 -42.859375 147.984375 -42.828125 151.171875 -42.765625 C 168.460938 -42.460938 185.769531 -42.085938 203.09375 -41.640625 C 208.769531 -41.535156 214.40625 -41.300781 220 -40.9375 C 220.5 -40.882812 221.023438 -40.859375 221.578125 -40.859375 C 221.890625 -40.859375 222.222656 -40.859375 222.578125 -40.859375 C 223.296875 -40.859375 223.992188 -40.796875 224.671875 -40.671875 C 225.359375 -40.546875 226.003906 -40.300781 226.609375 -39.9375 C 226.722656 -39.851562 226.804688 -39.722656 226.859375 -39.546875 C 226.910156 -39.367188 226.910156 -39.222656 226.859375 -39.109375 C 226.859375 -38.921875 226.78125 -38.75 226.625 -38.59375 C 226.476562 -38.4375 226.347656 -38.332031 226.234375 -38.28125 C 225.734375 -38.082031 225.207031 -37.984375 224.65625 -37.984375 Z M 100.75 -37.53125 C 100.945312 -37.914062 100.96875 -38.257812 100.8125 -38.5625 C 100.664062 -38.875 100.410156 -39.03125 100.046875 -39.03125 C 99.492188 -39.082031 98.910156 -39.082031 98.296875 -39.03125 C 97.992188 -39.03125 97.691406 -39.03125 97.390625 -39.03125 C 76.460938 -38.78125 55.523438 -37.335938 34.578125 -34.703125 C 26.566406 -33.734375 18.597656 -32.457031 10.671875 -30.875 C 2.753906 -29.300781 -5.097656 -27.320312 -12.890625 -24.9375 C -17.046875 -23.664062 -21.144531 -22.203125 -25.1875 -20.546875 C -29.226562 -18.898438 -33.175781 -16.941406 -37.03125 -14.671875 C -41.050781 -12.429688 -44.707031 -9.6875 -48 -6.4375 C -51.851562 -2.476562 -54.019531 1.734375 -54.5 6.203125 C -54.988281 10.679688 -53.796875 15 -50.921875 19.15625 C -48.785156 22.070312 -46.234375 24.566406 -43.265625 26.640625 C -32.460938 34.316406 -19.59375 38.222656 -4.65625 38.359375 C -0.832031 38.359375 3.554688 37.863281 8.515625 36.875 C 13.453125 35.84375 18.21875 34.335938 22.8125 32.359375 C 27.414062 30.378906 31.878906 28.046875 36.203125 25.359375 C 46.867188 18.785156 56.75 11.132812 65.84375 2.40625 C 72.132812 -3.488281 78.0625 -9.695312 83.625 -16.21875 C 89.195312 -22.75 94.601562 -29.394531 99.84375 -36.15625 C 100.144531 -36.65625 100.445312 -37.113281 100.75 -37.53125 Z M 126.1875 -46.140625 C 130.207031 -55.285156 134.351562 -64.398438 138.625 -73.484375 C 138.8125 -73.984375 139.453125 -75.414062 140.546875 -77.78125 C 141.640625 -80.15625 142.898438 -82.914062 144.328125 -86.0625 C 145.753906 -89.207031 147.0625 -92.175781 148.25 -94.96875 C 149.445312 -97.769531 150.285156 -99.867188 150.765625 -101.265625 C 151.253906 -102.671875 151.113281 -102.804688 150.34375 -101.671875 C 150.144531 -101.421875 149.992188 -101.171875 149.890625 -100.921875 C 149.222656 -99.953125 148.582031 -98.984375 147.96875 -98.015625 C 142.894531 -90.140625 137.796875 -82.28125 132.671875 -74.4375 C 127.546875 -66.601562 122.238281 -58.875 116.75 -51.25 C 116.226562 -50.53125 115.691406 -49.769531 115.140625 -48.96875 C 114.085938 -47.519531 113.046875 -46.0625 112.015625 -44.59375 C 111.597656 -43.988281 111.476562 -43.484375 111.65625 -43.078125 C 111.84375 -42.679688 112.269531 -42.484375 112.9375 -42.484375 C 114.039062 -42.484375 115.132812 -42.507812 116.21875 -42.5625 C 117.9375 -42.695312 119.640625 -42.765625 121.328125 -42.765625 C 122.628906 -42.710938 123.640625 -42.988281 124.359375 -43.59375 C 125.078125 -44.207031 125.6875 -45.054688 126.1875 -46.140625 Z M 126.1875 -46.140625 "/></g></g></g><g fill="#000000" fill-opacity="1"><g transform="translate(204.310731, 235.383784)"><g><path d="M 32.921875 -20.734375 C 33.359375 -20.179688 32.800781 -19.171875 31.25 -17.703125 C 29.695312 -16.234375 28.046875 -15 26.296875 -14 C 24.554688 -13.007812 22.535156 -12.015625 20.234375 -11.015625 C 18.710938 -10.347656 17.09375 -10.125 15.375 -10.34375 C 13.65625 -10.570312 12.796875 -11.613281 12.796875 -13.46875 C 12.796875 -15.320312 13.226562 -17.164062 14.09375 -19 C 14.945312 -20.882812 15.128906 -21.851562 14.640625 -21.90625 C 14.160156 -21.957031 13.160156 -21.5 11.640625 -20.53125 C 7.671875 -17.925781 3.984375 -14.945312 0.578125 -11.59375 C -0.335938 -10.488281 -1.5 -9.878906 -2.90625 -9.765625 C -3.625 -9.765625 -4.1875 -9.992188 -4.59375 -10.453125 C -5 -10.910156 -5.046875 -11.398438 -4.734375 -11.921875 C -2.296875 -16.441406 0.164062 -20.90625 2.65625 -25.3125 C 3.207031 -26.226562 4.039062 -26.796875 5.15625 -27.015625 C 5.625 -27.097656 6.054688 -26.953125 6.453125 -26.578125 C 6.859375 -26.203125 7.0625 -25.78125 7.0625 -25.3125 C 7.007812 -24.863281 6.832031 -24.335938 6.53125 -23.734375 C 6.382812 -23.367188 6.25 -23.019531 6.125 -22.6875 C 6 -22.363281 5.957031 -22.085938 6 -21.859375 C 6.039062 -21.640625 6.21875 -21.570312 6.53125 -21.65625 C 6.945312 -21.875 7.359375 -22.109375 7.765625 -22.359375 C 8.828125 -22.972656 9.84375 -23.554688 10.8125 -24.109375 C 11.664062 -24.609375 12.5625 -25.050781 13.5 -25.4375 C 14.445312 -25.820312 15.429688 -26.085938 16.453125 -26.234375 C 18.117188 -26.335938 19.296875 -25.957031 19.984375 -25.09375 C 20.679688 -24.238281 20.765625 -23.050781 20.234375 -21.53125 C 19.679688 -20.144531 19.101562 -18.773438 18.5 -17.421875 C 17.75 -16.140625 17.625 -15.164062 18.125 -14.5 C 18.625 -13.84375 20.9375 -14.609375 25.0625 -16.796875 L 28.1875 -18.625 C 31.125 -20.507812 32.703125 -21.210938 32.921875 -20.734375 Z M 32.921875 -20.734375 "/></g></g></g><g fill="#000000" fill-opacity="1"><g transform="translate(234.775476, 235.383784)"><g><path d="M 32.625 -21.671875 C 32.988281 -20.960938 32.394531 -19.878906 30.84375 -18.421875 C 29.289062 -16.972656 26.5625 -15.210938 22.65625 -13.140625 C 21.1875 -12.523438 20.117188 -12.035156 19.453125 -11.671875 C 18.785156 -11.316406 18.300781 -10.863281 18 -10.3125 C 17.695312 -9.757812 17.363281 -8.898438 17 -7.734375 C 16.695312 -6.867188 16.296875 -5.71875 15.796875 -4.28125 C 15.128906 -2.507812 14.460938 -0.679688 13.796875 1.203125 C 12.578125 5.054688 11.128906 8.859375 9.453125 12.609375 C 7.773438 16.367188 5.601562 19.644531 2.9375 22.4375 C 0.28125 25.238281 -3.132812 27.097656 -7.3125 28.015625 C -11.53125 28.816406 -15.601562 28.941406 -19.53125 28.390625 C -23.46875 27.835938 -27.320312 26.742188 -31.09375 25.109375 C -32.613281 24.410156 -33.984375 23.492188 -35.203125 22.359375 C -37.222656 20.285156 -37.375 17.957031 -35.65625 15.375 C -34.75 14.101562 -33.6875 12.953125 -32.46875 11.921875 C -30.019531 9.960938 -27.46875 8.164062 -24.8125 6.53125 C -19.851562 3.53125 -14.78125 0.785156 -9.59375 -1.703125 C -4.414062 -4.191406 0.816406 -6.601562 6.109375 -8.9375 C 6.472656 -9.101562 6.875 -9.285156 7.3125 -9.484375 C 8.757812 -10.140625 10.242188 -10.800781 11.765625 -11.46875 C 12.816406 -11.851562 13.519531 -12.5625 13.875 -13.59375 C 13.988281 -13.945312 14.019531 -14.28125 13.96875 -14.59375 C 13.90625 -14.78125 13.796875 -14.890625 13.640625 -14.921875 C 13.492188 -14.953125 13.328125 -14.910156 13.140625 -14.796875 C 12.609375 -14.492188 12.066406 -14.148438 11.515625 -13.765625 C 11.210938 -13.597656 10.878906 -13.390625 10.515625 -13.140625 C 8.597656 -12.023438 6.617188 -11.539062 4.578125 -11.6875 C 1.328125 -11.6875 -0.320312 -13.140625 -0.375 -16.046875 C -0.425781 -18.429688 -0.0195312 -20.6875 0.84375 -22.8125 C 1.71875 -24.945312 2.960938 -26.957031 4.578125 -28.84375 C 4.742188 -29.039062 4.976562 -29.203125 5.28125 -29.328125 C 5.582031 -29.453125 5.882812 -29.539062 6.1875 -29.59375 C 6.25 -29.59375 6.320312 -29.617188 6.40625 -29.671875 C 7.007812 -29.734375 7.476562 -29.582031 7.8125 -29.21875 C 8.144531 -28.863281 8.210938 -28.40625 8.015625 -27.84375 C 7.660156 -27.070312 7.300781 -26.285156 6.9375 -25.484375 C 6.632812 -24.867188 6.332031 -24.257812 6.03125 -23.65625 C 4.8125 -21.269531 4.253906 -18.773438 4.359375 -16.171875 C 4.421875 -15.617188 4.664062 -15.21875 5.09375 -14.96875 C 5.519531 -14.71875 6.007812 -14.71875 6.5625 -14.96875 C 8.195312 -15.632812 9.625 -16.578125 10.84375 -17.796875 C 14.144531 -20.785156 16.863281 -24.234375 19 -28.140625 C 19.300781 -28.691406 19.648438 -29.160156 20.046875 -29.546875 C 20.453125 -29.941406 20.988281 -30.164062 21.65625 -30.21875 C 22.507812 -30.300781 23.164062 -30.113281 23.625 -29.65625 C 24.082031 -29.195312 24.21875 -28.59375 24.03125 -27.84375 C 23.25 -25.351562 22.429688 -22.890625 21.578125 -20.453125 C 21.515625 -20.253906 21.441406 -20.070312 21.359375 -19.90625 C 21.140625 -19.351562 20.929688 -18.769531 20.734375 -18.15625 C 20.546875 -17.550781 20.453125 -17.019531 20.453125 -16.5625 C 20.453125 -16.101562 20.644531 -15.875 21.03125 -15.875 C 22.550781 -16.175781 24.773438 -17.394531 27.703125 -19.53125 C 30.628906 -21.664062 32.269531 -22.378906 32.625 -21.671875 Z M 10.84375 -4.984375 C 10.84375 -5.128906 10.882812 -5.253906 10.96875 -5.359375 C 11.132812 -5.660156 11.234375 -5.992188 11.265625 -6.359375 C 11.296875 -6.722656 11.195312 -7.097656 10.96875 -7.484375 C 10.78125 -7.484375 10.628906 -7.484375 10.515625 -7.484375 C 10.128906 -7.398438 9.785156 -7.300781 9.484375 -7.1875 C 8.867188 -6.9375 8.253906 -6.660156 7.640625 -6.359375 C 2.765625 -4.117188 -2.109375 -1.804688 -6.984375 0.578125 C -11.859375 2.960938 -16.640625 5.5 -21.328125 8.1875 C -24.179688 9.820312 -26.867188 11.734375 -29.390625 13.921875 C -31.441406 15.753906 -32.425781 17.351562 -32.34375 18.71875 C -32.257812 20.09375 -31.050781 21.332031 -28.71875 22.4375 C -23.425781 25.1875 -17.734375 26.3125 -11.640625 25.8125 C -7.484375 25.394531 -4.109375 23.828125 -1.515625 21.109375 C 1.078125 18.398438 3.195312 15.148438 4.84375 11.359375 C 6.488281 7.578125 7.921875 3.804688 9.140625 0.046875 C 9.671875 -1.734375 10.238281 -3.410156 10.84375 -4.984375 Z M 10.84375 -4.984375 "/></g></g></g><g fill="#000000" fill-opacity="1"><g transform="translate(265.032412, 235.383784)"><g><path d="M 6.609375 -9.84375 L 6.484375 -9.84375 C 2.460938 -9.90625 -0.179688 -10.800781 -1.453125 -12.53125 C -2.722656 -14.257812 -2.664062 -16.566406 -1.28125 -19.453125 C -0.125 -21.640625 1.34375 -23.550781 3.125 -25.1875 C 3.726562 -25.738281 4.347656 -26.179688 4.984375 -26.515625 C 5.617188 -26.847656 6.34375 -27.015625 7.15625 -27.015625 C 7.625 -27.097656 8.160156 -27.015625 8.765625 -26.765625 C 8.960938 -26.710938 9.160156 -26.644531 9.359375 -26.5625 C 9.828125 -26.644531 10.28125 -26.796875 10.71875 -27.015625 C 10.832031 -27.097656 10.988281 -27.164062 11.1875 -27.21875 C 12.09375 -27.582031 13.0625 -27.738281 14.09375 -27.6875 C 14.507812 -27.6875 14.9375 -27.6875 15.375 -27.6875 C 17.007812 -27.4375 18.242188 -26.75 19.078125 -25.625 C 19.910156 -24.5 20.203125 -23.132812 19.953125 -21.53125 C 19.816406 -20.5625 19.507812 -19.644531 19.03125 -18.78125 C 15.84375 -13.070312 11.785156 -10.09375 6.859375 -9.84375 Z M 13.171875 -24.734375 C 10.984375 -24.816406 9.035156 -24.1875 7.328125 -22.84375 C 5.628906 -21.5 4.363281 -19.953125 3.53125 -18.203125 C 2.695312 -16.460938 2.46875 -15.03125 2.84375 -13.90625 C 3.21875 -12.78125 4.375 -12.46875 6.3125 -12.96875 C 8.5 -13.632812 10.429688 -14.878906 12.109375 -16.703125 C 13.785156 -18.535156 14.8125 -20.273438 15.1875 -21.921875 C 15.5625 -23.578125 14.890625 -24.515625 13.171875 -24.734375 Z M 13.171875 -24.734375 "/></g></g></g><g fill="#000000" fill-opacity="1"><g transform="translate(287.101688, 235.383784)"><g><path d="M 19.953125 -25.515625 C 19.703125 -23.609375 18.800781 -22.363281 17.25 -21.78125 C 15.695312 -21.195312 15.191406 -21.957031 15.734375 -24.0625 C 16.273438 -26.164062 15.328125 -26.695312 12.890625 -25.65625 C 10.453125 -24.625 8.441406 -23.316406 6.859375 -21.734375 C 4.421875 -19.242188 2.257812 -16.554688 0.375 -13.671875 C 0.175781 -13.421875 0.0234375 -13.210938 -0.078125 -13.046875 C -0.640625 -12.242188 -1.195312 -11.484375 -1.75 -10.765625 C -2.101562 -10.265625 -2.519531 -9.953125 -3 -9.828125 C -3.488281 -9.703125 -3.984375 -9.679688 -4.484375 -9.765625 C -4.960938 -9.816406 -5.320312 -9.992188 -5.5625 -10.296875 C -5.8125 -10.609375 -5.84375 -10.972656 -5.65625 -11.390625 C -5.351562 -12.140625 -4.992188 -12.898438 -4.578125 -13.671875 C -2.078125 -18.296875 0.457031 -22.9375 3.03125 -27.59375 C 3.09375 -27.65625 3.125 -27.710938 3.125 -27.765625 C 3.476562 -28.484375 3.90625 -29.148438 4.40625 -29.765625 C 4.957031 -30.367188 5.59375 -30.613281 6.3125 -30.5 C 7.039062 -30.394531 7.523438 -29.96875 7.765625 -29.21875 C 8.078125 -28.25 8.34375 -27.703125 8.5625 -27.578125 C 8.78125 -27.453125 9.28125 -27.539062 10.0625 -27.84375 C 11.71875 -28.457031 13.335938 -28.890625 14.921875 -29.140625 C 16.503906 -29.390625 17.800781 -29.328125 18.8125 -28.953125 C 19.820312 -28.578125 20.203125 -27.429688 19.953125 -25.515625 Z M 19.953125 -25.515625 "/></g></g></g><g fill="#000000" fill-opacity="1"><g transform="translate(307.882552, 235.383784)"><g><path d="M 30.140625 -21.171875 C 30.796875 -20.796875 30.847656 -19.890625 30.296875 -18.453125 C 29.492188 -17.398438 28.632812 -16.414062 27.71875 -15.5 C 26.8125 -14.582031 25.816406 -13.765625 24.734375 -13.046875 C 24.648438 -13.046875 24.609375 -13.019531 24.609375 -12.96875 C 23.890625 -12.46875 23.128906 -12.039062 22.328125 -11.6875 C 15.703125 -9.300781 12.316406 -10.695312 12.171875 -15.875 C 9.484375 -13.550781 7.6875 -12.125 6.78125 -11.59375 C 4.582031 -10.289062 2.210938 -9.707031 -0.328125 -9.84375 C -2.210938 -9.957031 -3.492188 -10.535156 -4.171875 -11.578125 C -4.859375 -12.617188 -4.796875 -14.023438 -3.984375 -15.796875 C -2.765625 -18.597656 -1.035156 -21.09375 1.203125 -23.28125 C 3.835938 -25.71875 6.757812 -27.671875 9.96875 -29.140625 C 11.6875 -29.992188 13.488281 -30.328125 15.375 -30.140625 C 17.257812 -30.023438 18.394531 -28.957031 18.78125 -26.9375 C 18.945312 -26.320312 18.796875 -25.78125 18.328125 -25.3125 C 17.722656 -24.757812 17.015625 -24.632812 16.203125 -24.9375 C 16.148438 -24.9375 16.078125 -24.945312 15.984375 -24.96875 C 15.890625 -25 15.8125 -25.046875 15.75 -25.109375 C 14.945312 -26.210938 14.132812 -26.675781 13.3125 -26.5 C 12.5 -26.320312 11.632812 -25.953125 10.71875 -25.390625 C 6.457031 -22.898438 3.285156 -19.425781 1.203125 -14.96875 C 1.097656 -14.769531 1.03125 -14.550781 1 -14.3125 C 0.96875 -14.082031 1.035156 -13.898438 1.203125 -13.765625 C 1.703125 -13.597656 2.253906 -13.628906 2.859375 -13.859375 C 3.472656 -14.097656 4.082031 -14.445312 4.6875 -14.90625 C 5.300781 -15.363281 5.816406 -15.742188 6.234375 -16.046875 C 6.285156 -16.128906 6.3125 -16.171875 6.3125 -16.171875 C 8.34375 -17.859375 10.328125 -19.585938 12.265625 -21.359375 C 13.117188 -22.273438 14.1875 -22.789062 15.46875 -22.90625 C 17.289062 -22.90625 18.050781 -22.085938 17.75 -20.453125 C 17.582031 -19.835938 17.398438 -19.226562 17.203125 -18.625 C 16.484375 -15.988281 16.457031 -14.441406 17.125 -13.984375 C 17.789062 -13.523438 18.804688 -13.523438 20.171875 -13.984375 C 21.546875 -14.441406 22.921875 -15.3125 24.296875 -16.59375 C 25.671875 -17.882812 26.828125 -19.0625 27.765625 -20.125 C 28.703125 -21.195312 29.492188 -21.546875 30.140625 -21.171875 Z M 30.140625 -21.171875 "/></g></g></g></svg>