<?xml version="1.0" encoding="UTF-8"?><svg id="b" xmlns="http://www.w3.org/2000/svg" width="321.1" height="133.16" viewBox="0 0 321.1 133.16"><g id="c"><path d="m210.86,60.94c-3.91-.32-7.84-.48-11.81-.48-1.74-.04-3.51-.08-5.3-.11-16.38-.47-32.8-.6-49.26-.36h-2.03c-.9-.04-1.55-.04-1.96,0-.41.05-.74.21-.98.48-.25.27-.54.7-.86,1.3-.22.35-.49.78-.8,1.3-2.74,4.2-5.25,8.46-7.54,12.8-1.5,2.8-2.66,5.68-3.47,8.62-.31.92-.42,1.81-.32,2.68.09.87.65,1.65,1.67,2.34.14.07.2.16.15.27-.04.11-.13.21-.28.3-.14.1-.29.16-.46.19-2.43.26-3.89-.35-4.38-1.83-.29-.83-.33-1.69-.15-2.57v-.15c.18-1.51.56-3.01,1.14-4.5.58-1.48,1.23-2.98,1.95-4.47,2.31-4.48,4.86-8.91,7.64-13.27.14-.19.25-.38.33-.57.14-.21.3-.44.46-.66.22-.32.43-.63.61-.95.18-.32.26-.65.22-1-.22-.12-.45-.2-.68-.23-.22-.03-.45-.03-.67,0h-.16c-1.92,0-3.85.02-5.79.05h-1.69c-.71.03-1.32.18-1.81.47-.48.29-.95.64-1.41,1.05-.59.53-1.18,1.07-1.78,1.6-2.51,2.26-5.05,4.49-7.61,6.71-3.78,3.21-7.73,6.32-11.85,9.31-4.12,2.99-8.49,5.79-13.11,8.4-5.81,3.36-11.98,6.32-18.49,8.88-9.98,3.76-20.45,5.55-31.38,5.35-10.3-.16-19.59-2.11-27.88-5.87-2.33-1.05-4.39-2.31-6.19-3.79-1.2-1.05-2.16-2.18-2.87-3.39-.71-1.22-1.06-2.53-1.06-3.95.11-1.71.67-3.3,1.68-4.76,1.01-1.46,2.41-2.78,4.21-3.97,2.48-1.69,5.2-3.11,8.16-4.27,2.88-1.18,5.85-2.21,8.91-3.09,3.05-.89,6.13-1.67,9.25-2.37,5.03-1.13,10.11-2.09,15.23-2.86,5.13-.78,10.29-1.44,15.46-1.99,12.27-1.19,24.57-1.98,36.91-2.37,6.3-.28,12.57-.41,18.83-.41,1.71.03,3.04-.48,3.99-1.53,1.65-1.64,3.31-3.28,4.99-4.93,2.6-2.53,5.15-5.1,7.67-7.71,11.7-12.27,22.9-24.74,33.62-37.41.9-1.08,1.78-2.17,2.64-3.27.41-.56.83-1.13,1.28-1.71.54-.73,1.39-1.14,2.55-1.22.64,0,1.1.13,1.4.38.3.25.33.58.1,1-.22.35-.48.68-.76.99-1.74,2.19-3.28,4.4-4.64,6.64-.51.79-1.01,1.56-1.5,2.33-4.73,7.2-9.47,14.4-14.23,21.62-3.64,5.56-7.32,11.14-11.01,16.72-1.07,1.65-2.12,3.3-3.16,4.94-.23.34-.46.67-.68.99-.04.07-.08.15-.13.23-.14.23-.25.46-.35.68-.09.22-.07.44.08.66.3.16.65.24,1.06.26.42.02.8.02,1.14.02.28-.03.54-.05.77-.05,1.69.03,3.4.03,5.12,0,2.33,0,4.67.02,7.02.05,12.76.16,25.53.35,38.31.58,4.19.05,8.35.18,12.48.36.37.03.76.04,1.16.04h.74c.53,0,1.04.03,1.55.1.51.06.98.19,1.43.38.08.04.14.11.18.2.04.09.04.17,0,.23,0,.1-.06.19-.17.27-.11.08-.2.14-.29.16-.37.1-.76.15-1.16.15Zm-91.43.23c.14-.2.16-.38.05-.53-.11-.16-.3-.24-.56-.24-.41-.03-.84-.03-1.29,0h-.67c-15.44.13-30.89.88-46.35,2.24-5.91.5-11.79,1.16-17.64,1.98-5.84.82-11.64,1.84-17.39,3.08-3.07.66-6.09,1.42-9.07,2.28-2.98.85-5.89,1.87-8.74,3.05-2.97,1.16-5.66,2.58-8.09,4.27-2.84,2.05-4.44,4.24-4.8,6.55-.36,2.32.52,4.56,2.64,6.72,1.58,1.51,3.46,2.81,5.65,3.88,7.97,3.98,17.47,6.01,28.49,6.08,2.82,0,6.06-.26,9.72-.77,3.64-.53,7.16-1.32,10.55-2.34,3.4-1.03,6.69-2.24,9.88-3.63,7.87-3.41,15.16-7.38,21.87-11.9,4.64-3.06,9.02-6.27,13.12-9.66,4.11-3.39,8.1-6.83,11.97-10.34.22-.26.44-.5.67-.71Zm18.77-4.46c2.97-4.74,6.02-9.47,9.18-14.18.14-.26.61-1,1.42-2.23.81-1.23,1.74-2.66,2.79-4.29,1.05-1.63,2.02-3.17,2.89-4.62.88-1.45,1.5-2.54,1.86-3.27.36-.73.26-.8-.31-.21-.15.13-.26.26-.33.39-.49.5-.97,1-1.42,1.51-3.74,4.08-7.51,8.16-11.29,12.23-3.78,4.06-7.7,8.07-11.75,12.02-.39.37-.78.77-1.19,1.18-.78.75-1.55,1.51-2.31,2.27-.31.31-.4.58-.27.79.14.21.45.31.95.31.81,0,1.62-.01,2.42-.04,1.27-.07,2.53-.11,3.77-.11.96.03,1.71-.12,2.24-.43.53-.32.98-.76,1.35-1.32Z" style="stroke:#000; stroke-miterlimit:10; stroke-width:2px;"/><path d="m183.4,76.19c.59.75-.16,2.12-2.27,4.12-2.11,2-4.35,3.67-6.73,5.03-2.37,1.35-5.11,2.7-8.24,4.06-2.07.91-4.27,1.21-6.6.91-2.34-.31-3.5-1.73-3.5-4.25s.58-5.02,1.76-7.52c1.16-2.56,1.41-3.88.74-3.95-.65-.07-2.01.55-4.08,1.87-5.39,3.54-10.4,7.59-15.03,12.15-1.24,1.5-2.82,2.33-4.74,2.48-.98,0-1.74-.31-2.29-.93-.55-.62-.62-1.28-.19-2,3.31-6.14,6.66-12.21,10.04-18.2.75-1.24,1.88-2.02,3.4-2.31.64-.11,1.22.08,1.76.59.55.51.83,1.08.83,1.72-.07.61-.31,1.33-.72,2.14-.2.5-.38.97-.55,1.42-.17.44-.23.82-.17,1.13.05.3.3.39.72.28.56-.3,1.13-.62,1.68-.96,1.44-.83,2.82-1.62,4.14-2.38,1.16-.68,2.38-1.28,3.65-1.8,1.28-.52,2.62-.88,4.01-1.08,2.26-.14,3.86.38,4.8,1.55.94,1.16,1.06,2.78.34,4.84-.75,1.88-1.54,3.75-2.36,5.58-1.02,1.74-1.19,3.07-.51,3.97.68.89,3.82-.15,9.43-3.12l4.25-2.48c3.99-2.56,6.14-3.51,6.43-2.87Z"/><path d="m224.4,76.35c.47.8-.3,2.02-2.32,3.66-2.02,1.63-5.57,3.62-10.64,5.95-1.91.7-3.3,1.25-4.16,1.66-.87.4-1.5.91-1.89,1.53-.4.63-.83,1.59-1.3,2.91-.4.98-.91,2.27-1.56,3.89-.87,2-1.74,4.06-2.6,6.18-1.58,4.34-3.47,8.63-5.65,12.86-2.18,4.24-5.01,7.93-8.47,11.08-3.45,3.16-7.89,5.25-13.32,6.29-5.48.9-10.78,1.04-15.88.42-5.12-.63-10.13-1.86-15.03-3.7-1.98-.79-3.76-1.82-5.34-3.1-2.63-2.34-2.82-4.96-.59-7.87,1.18-1.44,2.56-2.73,4.14-3.89,3.18-2.21,6.5-4.24,9.95-6.08,6.45-3.38,13.04-6.48,19.78-9.28,6.73-2.8,13.53-5.52,20.41-8.15.47-.18,1-.39,1.56-.62,1.88-.74,3.81-1.48,5.79-2.24,1.37-.43,2.28-1.23,2.74-2.4.15-.4.19-.77.12-1.13-.08-.21-.22-.33-.43-.37-.19-.04-.41.01-.65.14-.69.34-1.4.73-2.11,1.16-.4.19-.83.42-1.3.7-2.49,1.26-5.07,1.81-7.72,1.64-4.22,0-6.37-1.64-6.44-4.91-.07-2.69.46-5.23,1.58-7.63,1.14-2.4,2.75-4.67,4.85-6.8.21-.22.52-.41.91-.55.39-.14.78-.24,1.18-.3.08,0,.17-.03.28-.09.78-.07,1.39.1,1.83.51.43.4.52.92.26,1.55-.46.87-.93,1.76-1.4,2.66-.4.7-.79,1.38-1.18,2.06-1.58,2.69-2.31,5.5-2.17,8.44.08.63.4,1.07.95,1.36.55.28,1.19.28,1.91,0,2.12-.75,3.98-1.81,5.57-3.19,4.29-3.37,7.83-7.26,10.6-11.66.39-.62.84-1.15,1.36-1.59.53-.44,1.22-.7,2.09-.76,1.11-.09,1.96.12,2.56.63.59.52.77,1.2.53,2.04-1.02,2.81-2.08,5.58-3.19,8.33-.08.22-.18.43-.28.62-.28.63-.56,1.28-.81,1.97-.24.68-.37,1.28-.37,1.8s.25.77.75.77c1.98-.34,4.86-1.71,8.67-4.12,3.8-2.4,5.94-3.21,6.4-2.41Zm-28.31,18.81c0-.16.05-.3.16-.42.21-.34.35-.71.39-1.13.04-.41-.09-.83-.39-1.27h-.59c-.5.1-.95.21-1.34.33-.8.28-1.6.59-2.4.93-6.34,2.53-12.67,5.13-19.01,7.82-6.34,2.69-12.55,5.55-18.65,8.58-3.71,1.84-7.2,4-10.48,6.46-2.67,2.07-3.95,3.87-3.84,5.41.11,1.55,1.68,2.95,4.71,4.19,6.88,3.1,14.28,4.37,22.2,3.8,5.4-.47,9.79-2.24,13.16-5.3,3.37-3.06,6.12-6.72,8.27-10.99,2.14-4.26,4-8.52,5.59-12.75.69-2.01,1.43-3.9,2.21-5.67Z"/><path d="m230.16,90.99h-.17c-5.47-.08-9.06-1.3-10.79-3.65-1.73-2.35-1.65-5.48.23-9.41,1.57-2.97,3.57-5.57,5.99-7.79.82-.75,1.66-1.35,2.53-1.8.86-.45,1.85-.68,2.95-.68.64-.11,1.36,0,2.19.34.27.07.54.16.81.28.64-.11,1.25-.32,1.85-.62.15-.11.37-.2.64-.28,1.23-.49,2.55-.71,3.95-.64h1.74c2.22.34,3.9,1.27,5.03,2.8,1.13,1.53,1.53,3.39,1.19,5.56-.19,1.32-.61,2.56-1.25,3.74-4.33,7.76-9.85,11.81-16.54,12.15h-.34Zm8.92-20.24c-2.97-.11-5.62.74-7.94,2.57-2.31,1.83-4.03,3.93-5.16,6.31-1.14,2.37-1.44,4.31-.93,5.84s2.08,1.95,4.71,1.27c2.97-.9,5.6-2.6,7.88-5.07,2.28-2.49,3.67-4.85,4.18-7.09.51-2.25-.4-3.52-2.74-3.82Z"/><path d="m278.29,69.69c-.34,2.59-1.57,4.28-3.67,5.07-2.11.8-2.8-.24-2.06-3.1.73-2.86-.55-3.58-3.86-2.17-3.31,1.4-6.05,3.18-8.2,5.33-3.31,3.39-6.25,7.04-8.81,10.96-.27.34-.48.63-.62.85-.76,1.09-1.52,2.12-2.27,3.1-.48.68-1.05,1.1-1.7,1.27-.66.17-1.34.2-2.02.08-.65-.07-1.14-.31-1.47-.72-.34-.42-.38-.92-.13-1.49.41-1.02.9-2.05,1.47-3.1,3.4-6.29,6.84-12.59,10.34-18.92.08-.08.13-.16.13-.23.48-.98,1.06-1.88,1.74-2.72.75-.82,1.61-1.15,2.59-1,.99.14,1.65.72,1.97,1.74.42,1.32.79,2.06,1.08,2.23s.98.05,2.04-.36c2.25-.83,4.45-1.42,6.6-1.76,2.15-.34,3.91-.25,5.29.25,1.37.51,1.89,2.07,1.55,4.67Z"/><path d="m320.37,75.59c.89.51.96,1.74.21,3.69-1.09,1.43-2.26,2.77-3.5,4.01-1.23,1.25-2.59,2.36-4.06,3.33-.12,0-.17.04-.17.11-.98.68-2.01,1.26-3.1,1.74-9,3.24-13.61,1.35-13.8-5.69-3.65,3.16-6.09,5.1-7.33,5.82-2.99,1.77-6.21,2.56-9.66,2.38-2.56-.15-4.3-.94-5.22-2.36-.93-1.41-.85-3.32.25-5.73,1.66-3.81,4.01-7.2,7.05-10.17,3.58-3.31,7.55-5.97,11.91-7.96,2.34-1.16,4.78-1.61,7.35-1.36,2.56.16,4.1,1.61,4.63,4.35.22.84.02,1.57-.62,2.21-.82.75-1.78.92-2.89.51-.07,0-.17-.01-.3-.04-.13-.04-.23-.11-.32-.19-1.09-1.5-2.2-2.13-3.31-1.89-1.1.24-2.28.74-3.52,1.51-5.79,3.39-10.1,8.11-12.93,14.16-.14.27-.23.57-.28.89-.04.31.05.56.28.74.68.23,1.43.19,2.25-.13.83-.32,1.66-.8,2.48-1.42.83-.62,1.53-1.14,2.1-1.55.07-.11.11-.17.11-.17,2.76-2.29,5.46-4.64,8.09-7.05,1.16-1.24,2.61-1.94,4.35-2.1,2.47,0,3.51,1.11,3.1,3.33-.23.84-.48,1.67-.74,2.48-.98,3.58-1.01,5.69-.11,6.31.9.63,2.28.63,4.14,0,1.87-.62,3.74-1.8,5.61-3.55,1.87-1.75,3.44-3.35,4.71-4.8,1.27-1.45,2.35-1.93,3.23-1.42Z"/></g></svg>